<svg xmlns="http://www.w3.org/2000/svg" viewBox="0 0 45.07 46.46"><defs><style>.cls-1{fill:none;}</style></defs><title>FinalWorking</title><g id="Layer_2" data-name="Layer 2"><g id="Layer_1-2" data-name="Layer 1"><path class="cls-1" d="M10.1,10a5.11,5.11,0,0,0-1.31,3.52,6,6,0,0,0,1.31,3.85,4.39,4.39,0,0,0,3.21,1.32h9.22v0h9.23A4.35,4.35,0,0,0,35,17.36a5.9,5.9,0,0,0,1.32-3.85A5.07,5.07,0,0,0,35,10a4.35,4.35,0,0,0-3.2-1.32H22.53v0H13.31A4.39,4.39,0,0,0,10.1,10Z"/><path d="M45.07,13.19A13.78,13.78,0,0,0,40.89,2.65c-3-3-7-2.63-11.21-2.63L23,0V8.64l8.79,0A4.35,4.35,0,0,1,35,10a5.07,5.07,0,0,1,1.32,3.52A5.9,5.9,0,0,1,35,17.36a4.35,4.35,0,0,1-3.2,1.32l-8.79,0v8.68l8.79,0A4.32,4.32,0,0,1,35,28.69a6.1,6.1,0,0,1,1.31,3.92A5.5,5.5,0,0,1,35,36.31a4.35,4.35,0,0,1-3.2,1.32H12.44v8.78h17.1c4.25,0,7.87.58,10.88-2.42a14.85,14.85,0,0,0,4.51-10.88,14.74,14.74,0,0,0-3.66-10A14.88,14.88,0,0,0,45.07,13.19Z"/><path d="M13.31,18.68a4.39,4.39,0,0,1-3.21-1.32,6,6,0,0,1-1.31-3.85A5.11,5.11,0,0,1,10.1,10a4.39,4.39,0,0,1,3.21-1.32l8.78,0V0l-6.7,0C11.14,0,7.07.14,4.06,3.15A12.64,12.64,0,0,0,0,13.19a14.88,14.88,0,0,0,3.8,10C1.36,26,0,31.76,0,35.58V46.46H8.76c0-1.29-.09-10.12-.1-11.38a13.49,13.49,0,0,1,1-5.62,4.9,4.9,0,0,1,3.65-2.1l8.78,0V18.66Z"/></g></g></svg>